<svg width="32" height="32" viewBox="0 0 32 32" fill="none" xmlns="http://www.w3.org/2000/svg">
<path d="M10.3333 29.3333C10.05 29.3333 9.81248 29.2375 9.62081 29.0458C9.42915 28.8541 9.33331 28.6166 9.33331 28.3333V5.79996C9.33331 5.51663 9.42915 5.27913 9.62081 5.08746C9.81248 4.89579 10.05 4.79996 10.3333 4.79996H13.3333V2.66663H18.6666V4.79996H21.6666C21.95 4.79996 22.1875 4.89579 22.3791 5.08746C22.5708 5.27913 22.6666 5.51663 22.6666 5.79996V28.3333C22.6666 28.6166 22.5708 28.8541 22.3791 29.0458C22.1875 29.2375 21.95 29.3333 21.6666 29.3333H10.3333ZM11.3333 12.6666H20.6666V6.79996H11.3333V12.6666Z" fill="#3285FF"/>
</svg>
