<svg width="20" height="20" viewBox="0 0 20 20" fill="none" xmlns="http://www.w3.org/2000/svg">
<path d="M4.58334 15C4.25 15 3.95834 14.875 3.70834 14.625C3.45834 14.375 3.33334 14.0833 3.33334 13.75V2.91663C3.33334 2.58329 3.45834 2.29163 3.70834 2.04163C3.95834 1.79163 4.25 1.66663 4.58334 1.66663H9.6875L10.9375 2.91663H17.9167C18.25 2.91663 18.5417 3.04163 18.7917 3.29163C19.0417 3.54163 19.1667 3.83329 19.1667 4.16663V13.75C19.1667 14.0833 19.0417 14.375 18.7917 14.625C18.5417 14.875 18.25 15 17.9167 15H4.58334ZM16.875 17.5H2.08334C1.75 17.5 1.45834 17.375 1.20834 17.125C0.958336 16.875 0.833336 16.5833 0.833336 16.25V4.16663H2.08334V16.25H16.875V17.5ZM6.95834 11.4375H15.5417L12.7917 7.77079L10.5 10.8125L8.85417 9.02079L6.95834 11.4375Z" fill="#C4C4C4"/>
</svg>
