<svg width="186" height="40" viewBox="0 0 186 40" fill="none" xmlns="http://www.w3.org/2000/svg">
<path fill-rule="evenodd" clip-rule="evenodd" d="M13.75 13.3333C13.75 5.96954 7.78045 0 0.416656 0V26.6667C0.416656 34.0305 6.38619 40 13.75 40L13.75 13.3333ZM16.25 13.3333C16.25 5.96954 22.2195 0 29.5833 0L29.5833 26.6667C29.5833 34.0305 23.6138 40 16.25 40L16.25 13.3333Z" fill="#3285FF"/>
<path d="M47.0233 32.168C45.8553 32.168 44.7993 31.968 43.8553 31.568C42.9273 31.168 42.1913 30.592 41.6473 29.84C41.1033 29.088 40.8233 28.2 40.8073 27.176H44.4073C44.4553 27.864 44.6953 28.408 45.1273 28.808C45.5753 29.208 46.1833 29.408 46.9513 29.408C47.7353 29.408 48.3513 29.224 48.7993 28.856C49.2473 28.472 49.4713 27.976 49.4713 27.368C49.4713 26.872 49.3193 26.464 49.0153 26.144C48.7113 25.824 48.3273 25.576 47.8633 25.4C47.4153 25.208 46.7913 25 45.9913 24.776C44.9033 24.456 44.0153 24.144 43.3273 23.84C42.6553 23.52 42.0713 23.048 41.5753 22.424C41.0953 21.784 40.8553 20.936 40.8553 19.88C40.8553 18.888 41.1033 18.024 41.5993 17.288C42.0953 16.552 42.7913 15.992 43.6873 15.608C44.5833 15.208 45.6073 15.008 46.7593 15.008C48.4873 15.008 49.8873 15.432 50.9593 16.28C52.0473 17.112 52.6473 18.28 52.7593 19.784H49.0633C49.0313 19.208 48.7833 18.736 48.3193 18.368C47.8713 17.984 47.2713 17.792 46.5193 17.792C45.8633 17.792 45.3353 17.96 44.9353 18.296C44.5513 18.632 44.3593 19.12 44.3593 19.76C44.3593 20.208 44.5033 20.584 44.7913 20.888C45.0953 21.176 45.4633 21.416 45.8953 21.608C46.3433 21.784 46.9673 21.992 47.7673 22.232C48.8553 22.552 49.7433 22.872 50.4313 23.192C51.1193 23.512 51.7113 23.992 52.2073 24.632C52.7033 25.272 52.9513 26.112 52.9513 27.152C52.9513 28.048 52.7193 28.88 52.2553 29.648C51.7913 30.416 51.1113 31.032 50.2153 31.496C49.3193 31.944 48.2553 32.168 47.0233 32.168ZM72.3763 18.512C74.0083 18.512 75.3203 19.016 76.3123 20.024C77.3203 21.016 77.8243 22.408 77.8243 24.2V32H74.4643V24.656C74.4643 23.616 74.2003 22.824 73.6723 22.28C73.1443 21.72 72.4243 21.44 71.5123 21.44C70.6003 21.44 69.8723 21.72 69.3283 22.28C68.8003 22.824 68.5363 23.616 68.5363 24.656V32H65.1763V24.656C65.1763 23.616 64.9123 22.824 64.3843 22.28C63.8563 21.72 63.1363 21.44 62.2243 21.44C61.2963 21.44 60.5603 21.72 60.0163 22.28C59.4883 22.824 59.2243 23.616 59.2243 24.656V32H55.8643V18.704H59.2243V20.312C59.6563 19.752 60.2083 19.312 60.8803 18.992C61.5683 18.672 62.3203 18.512 63.1363 18.512C64.1763 18.512 65.1043 18.736 65.9203 19.184C66.7363 19.616 67.3683 20.24 67.8163 21.056C68.2483 20.288 68.8723 19.672 69.6883 19.208C70.5203 18.744 71.4163 18.512 72.3763 18.512ZM80.1488 25.304C80.1488 23.96 80.4128 22.768 80.9408 21.728C81.4848 20.688 82.2128 19.888 83.1248 19.328C84.0528 18.768 85.0848 18.488 86.2208 18.488C87.2128 18.488 88.0768 18.688 88.8128 19.088C89.5648 19.488 90.1648 19.992 90.6128 20.6V18.704H93.9968V32H90.6128V30.056C90.1808 30.68 89.5808 31.2 88.8128 31.616C88.0608 32.016 87.1888 32.216 86.1968 32.216C85.0768 32.216 84.0528 31.928 83.1248 31.352C82.2128 30.776 81.4848 29.968 80.9408 28.928C80.4128 27.872 80.1488 26.664 80.1488 25.304ZM90.6128 25.352C90.6128 24.536 90.4528 23.84 90.1328 23.264C89.8128 22.672 89.3808 22.224 88.8368 21.92C88.2928 21.6 87.7088 21.44 87.0848 21.44C86.4608 21.44 85.8848 21.592 85.3568 21.896C84.8288 22.2 84.3968 22.648 84.0608 23.24C83.7408 23.816 83.5808 24.504 83.5808 25.304C83.5808 26.104 83.7408 26.808 84.0608 27.416C84.3968 28.008 84.8288 28.464 85.3568 28.784C85.9008 29.104 86.4768 29.264 87.0848 29.264C87.7088 29.264 88.2928 29.112 88.8368 28.808C89.3808 28.488 89.8128 28.04 90.1328 27.464C90.4528 26.872 90.6128 26.168 90.6128 25.352ZM100.638 20.768C101.07 20.064 101.63 19.512 102.318 19.112C103.022 18.712 103.822 18.512 104.718 18.512V22.04H103.83C102.774 22.04 101.974 22.288 101.43 22.784C100.902 23.28 100.638 24.144 100.638 25.376V32H97.2784V18.704H100.638V20.768ZM110.894 21.464V27.896C110.894 28.344 110.998 28.672 111.206 28.88C111.43 29.072 111.798 29.168 112.31 29.168H113.87V32H111.758C108.926 32 107.51 30.624 107.51 27.872V21.464H105.926V18.704H107.51V15.416H110.894V18.704H113.87V21.464H110.894ZM115.662 25.376C115.662 24.032 115.934 22.856 116.478 21.848C117.022 20.824 117.766 20.032 118.71 19.472C119.67 18.912 120.742 18.632 121.926 18.632C122.95 18.632 123.902 18.872 124.782 19.352C125.662 19.816 126.334 20.432 126.798 21.2V14.24H129.006V32H126.798V29.528C126.366 30.312 125.726 30.96 124.878 31.472C124.03 31.968 123.038 32.216 121.902 32.216C120.734 32.216 119.67 31.928 118.71 31.352C117.766 30.776 117.022 29.968 116.478 28.928C115.934 27.888 115.662 26.704 115.662 25.376ZM126.798 25.4C126.798 24.408 126.598 23.544 126.198 22.808C125.798 22.072 125.254 21.512 124.566 21.128C123.894 20.728 123.15 20.528 122.334 20.528C121.518 20.528 120.774 20.72 120.102 21.104C119.43 21.488 118.894 22.048 118.494 22.784C118.094 23.52 117.894 24.384 117.894 25.376C117.894 26.384 118.094 27.264 118.494 28.016C118.894 28.752 119.43 29.32 120.102 29.72C120.774 30.104 121.518 30.296 122.334 30.296C123.15 30.296 123.894 30.104 124.566 29.72C125.254 29.32 125.798 28.752 126.198 28.016C126.598 27.264 126.798 26.392 126.798 25.4ZM134.881 20.984C135.265 20.232 135.809 19.648 136.513 19.232C137.233 18.816 138.105 18.608 139.129 18.608V20.864H138.553C136.105 20.864 134.881 22.192 134.881 24.848V32H132.697V18.848H134.881V20.984ZM147.386 32.216C146.154 32.216 145.034 31.936 144.026 31.376C143.034 30.816 142.25 30.024 141.674 29C141.114 27.96 140.834 26.76 140.834 25.4C140.834 24.056 141.122 22.872 141.698 21.848C142.29 20.808 143.09 20.016 144.098 19.472C145.106 18.912 146.234 18.632 147.482 18.632C148.73 18.632 149.858 18.912 150.866 19.472C151.874 20.016 152.666 20.8 153.242 21.824C153.834 22.848 154.13 24.04 154.13 25.4C154.13 26.76 153.826 27.96 153.218 29C152.626 30.024 151.818 30.816 150.794 31.376C149.77 31.936 148.634 32.216 147.386 32.216ZM147.386 30.296C148.17 30.296 148.906 30.112 149.594 29.744C150.282 29.376 150.834 28.824 151.25 28.088C151.682 27.352 151.898 26.456 151.898 25.4C151.898 24.344 151.69 23.448 151.274 22.712C150.858 21.976 150.314 21.432 149.642 21.08C148.97 20.712 148.242 20.528 147.458 20.528C146.658 20.528 145.922 20.712 145.25 21.08C144.594 21.432 144.066 21.976 143.666 22.712C143.266 23.448 143.066 24.344 143.066 25.4C143.066 26.472 143.258 27.376 143.642 28.112C144.042 28.848 144.57 29.4 145.226 29.768C145.882 30.12 146.602 30.296 147.386 30.296ZM163.41 18.608C165.01 18.608 166.306 19.096 167.298 20.072C168.29 21.032 168.786 22.424 168.786 24.248V32H166.626V24.56C166.626 23.248 166.298 22.248 165.642 21.56C164.986 20.856 164.09 20.504 162.954 20.504C161.802 20.504 160.882 20.864 160.194 21.584C159.522 22.304 159.186 23.352 159.186 24.728V32H157.002V18.848H159.186V20.72C159.618 20.048 160.202 19.528 160.938 19.16C161.69 18.792 162.514 18.608 163.41 18.608ZM184.353 24.92C184.353 25.336 184.329 25.776 184.281 26.24H173.769C173.849 27.536 174.289 28.552 175.089 29.288C175.905 30.008 176.889 30.368 178.041 30.368C178.985 30.368 179.769 30.152 180.393 29.72C181.033 29.272 181.481 28.68 181.737 27.944H184.089C183.737 29.208 183.033 30.24 181.977 31.04C180.921 31.824 179.609 32.216 178.041 32.216C176.793 32.216 175.673 31.936 174.681 31.376C173.705 30.816 172.937 30.024 172.377 29C171.817 27.96 171.537 26.76 171.537 25.4C171.537 24.04 171.809 22.848 172.353 21.824C172.897 20.8 173.657 20.016 174.633 19.472C175.625 18.912 176.761 18.632 178.041 18.632C179.289 18.632 180.393 18.904 181.353 19.448C182.313 19.992 183.049 20.744 183.561 21.704C184.089 22.648 184.353 23.72 184.353 24.92ZM182.097 24.464C182.097 23.632 181.913 22.92 181.545 22.328C181.177 21.72 180.673 21.264 180.033 20.96C179.409 20.64 178.713 20.48 177.945 20.48C176.841 20.48 175.897 20.832 175.113 21.536C174.345 22.24 173.905 23.216 173.793 24.464H182.097Z" fill="#495057"/>
</svg>
