<svg width="144" height="32" viewBox="0 0 144 32" fill="none" xmlns="http://www.w3.org/2000/svg">
<path fill-rule="evenodd" clip-rule="evenodd" d="M10.6667 10.6667C10.6667 4.77563 5.89104 0 9.32509e-07 0L0 21.3333C-2.57506e-07 27.2244 4.77563 32 10.6667 32L10.6667 10.6667ZM12.6667 10.6667C12.6667 4.77563 17.4423 0 23.3333 0L23.3333 21.3333C23.3333 27.2244 18.5577 32 12.6667 32L12.6667 10.6667Z" fill="#3285FF"/>
<path d="M38.9133 26.126C38.0373 26.126 37.2453 25.976 36.5373 25.676C35.8413 25.376 35.2893 24.944 34.8813 24.38C34.4733 23.816 34.2633 23.15 34.2513 22.382H36.9513C36.9873 22.898 37.1673 23.306 37.4913 23.606C37.8273 23.906 38.2833 24.056 38.8593 24.056C39.4473 24.056 39.9093 23.918 40.2453 23.642C40.5813 23.354 40.7493 22.982 40.7493 22.526C40.7493 22.154 40.6353 21.848 40.4073 21.608C40.1793 21.368 39.8913 21.182 39.5433 21.05C39.2073 20.906 38.7393 20.75 38.1393 20.582C37.3233 20.342 36.6573 20.108 36.1413 19.88C35.6373 19.64 35.1993 19.286 34.8273 18.818C34.4673 18.338 34.2873 17.702 34.2873 16.91C34.2873 16.166 34.4733 15.518 34.8453 14.966C35.2173 14.414 35.7393 13.994 36.4113 13.706C37.0833 13.406 37.8513 13.256 38.7153 13.256C40.0113 13.256 41.0613 13.574 41.8653 14.21C42.6813 14.834 43.1313 15.71 43.2153 16.838H40.4433C40.4193 16.406 40.2333 16.052 39.8853 15.776C39.5493 15.488 39.0993 15.344 38.5353 15.344C38.0433 15.344 37.6473 15.47 37.3473 15.722C37.0593 15.974 36.9153 16.34 36.9153 16.82C36.9153 17.156 37.0233 17.438 37.2393 17.666C37.4673 17.882 37.7433 18.062 38.0673 18.206C38.4033 18.338 38.8713 18.494 39.4713 18.674C40.2873 18.914 40.9533 19.154 41.4693 19.394C41.9853 19.634 42.4293 19.994 42.8013 20.474C43.1733 20.954 43.3593 21.584 43.3593 22.364C43.3593 23.036 43.1853 23.66 42.8373 24.236C42.4893 24.812 41.9793 25.274 41.3073 25.622C40.6353 25.958 39.8373 26.126 38.9133 26.126ZM57.9281 15.884C59.1521 15.884 60.1361 16.262 60.8801 17.018C61.6361 17.762 62.0141 18.806 62.0141 20.15V26H59.4941V20.492C59.4941 19.712 59.2961 19.118 58.9001 18.71C58.5041 18.29 57.9641 18.08 57.2801 18.08C56.5961 18.08 56.0501 18.29 55.6421 18.71C55.2461 19.118 55.0481 19.712 55.0481 20.492V26H52.5281V20.492C52.5281 19.712 52.3301 19.118 51.9341 18.71C51.5381 18.29 50.9981 18.08 50.3141 18.08C49.6181 18.08 49.0661 18.29 48.6581 18.71C48.2621 19.118 48.0641 19.712 48.0641 20.492V26H45.5441V16.028H48.0641V17.234C48.3881 16.814 48.8021 16.484 49.3061 16.244C49.8221 16.004 50.3861 15.884 50.9981 15.884C51.7781 15.884 52.4741 16.052 53.0861 16.388C53.6981 16.712 54.1721 17.18 54.5081 17.792C54.8321 17.216 55.3001 16.754 55.9121 16.406C56.5361 16.058 57.2081 15.884 57.9281 15.884ZM63.7574 20.978C63.7574 19.97 63.9554 19.076 64.3514 18.296C64.7594 17.516 65.3054 16.916 65.9894 16.496C66.6854 16.076 67.4594 15.866 68.3114 15.866C69.0554 15.866 69.7034 16.016 70.2554 16.316C70.8194 16.616 71.2694 16.994 71.6054 17.45V16.028H74.1434V26H71.6054V24.542C71.2814 25.01 70.8314 25.4 70.2554 25.712C69.6914 26.012 69.0374 26.162 68.2934 26.162C67.4534 26.162 66.6854 25.946 65.9894 25.514C65.3054 25.082 64.7594 24.476 64.3514 23.696C63.9554 22.904 63.7574 21.998 63.7574 20.978ZM71.6054 21.014C71.6054 20.402 71.4854 19.88 71.2454 19.448C71.0054 19.004 70.6814 18.668 70.2734 18.44C69.8654 18.2 69.4274 18.08 68.9594 18.08C68.4914 18.08 68.0594 18.194 67.6634 18.422C67.2674 18.65 66.9434 18.986 66.6914 19.43C66.4514 19.862 66.3314 20.378 66.3314 20.978C66.3314 21.578 66.4514 22.106 66.6914 22.562C66.9434 23.006 67.2674 23.348 67.6634 23.588C68.0714 23.828 68.5034 23.948 68.9594 23.948C69.4274 23.948 69.8654 23.834 70.2734 23.606C70.6814 23.366 71.0054 23.03 71.2454 22.598C71.4854 22.154 71.6054 21.626 71.6054 21.014ZM79.1246 17.576C79.4486 17.048 79.8686 16.634 80.3846 16.334C80.9126 16.034 81.5126 15.884 82.1846 15.884V18.53H81.5186C80.7266 18.53 80.1266 18.716 79.7186 19.088C79.3226 19.46 79.1246 20.108 79.1246 21.032V26H76.6046V16.028H79.1246V17.576ZM86.816 18.098V22.922C86.816 23.258 86.894 23.504 87.05 23.66C87.218 23.804 87.494 23.876 87.878 23.876H89.048V26H87.464C85.34 26 84.278 24.968 84.278 22.904V18.098H83.09V16.028H84.278V13.562H86.816V16.028H89.048V18.098H86.816ZM90.3925 21.032C90.3925 20.024 90.5965 19.142 91.0045 18.386C91.4125 17.618 91.9705 17.024 92.6785 16.604C93.3985 16.184 94.2025 15.974 95.0905 15.974C95.8585 15.974 96.5725 16.154 97.2325 16.514C97.8925 16.862 98.3965 17.324 98.7445 17.9V12.68H100.4V26H98.7445V24.146C98.4205 24.734 97.9405 25.22 97.3045 25.604C96.6685 25.976 95.9245 26.162 95.0725 26.162C94.1965 26.162 93.3985 25.946 92.6785 25.514C91.9705 25.082 91.4125 24.476 91.0045 23.696C90.5965 22.916 90.3925 22.028 90.3925 21.032ZM98.7445 21.05C98.7445 20.306 98.5945 19.658 98.2945 19.106C97.9945 18.554 97.5865 18.134 97.0705 17.846C96.5665 17.546 96.0085 17.396 95.3965 17.396C94.7845 17.396 94.2265 17.54 93.7225 17.828C93.2185 18.116 92.8165 18.536 92.5165 19.088C92.2165 19.64 92.0665 20.288 92.0665 21.032C92.0665 21.788 92.2165 22.448 92.5165 23.012C92.8165 23.564 93.2185 23.99 93.7225 24.29C94.2265 24.578 94.7845 24.722 95.3965 24.722C96.0085 24.722 96.5665 24.578 97.0705 24.29C97.5865 23.99 97.9945 23.564 98.2945 23.012C98.5945 22.448 98.7445 21.794 98.7445 21.05ZM104.807 17.738C105.095 17.174 105.503 16.736 106.031 16.424C106.571 16.112 107.225 15.956 107.993 15.956V17.648H107.561C105.725 17.648 104.807 18.644 104.807 20.636V26H103.169V16.136H104.807V17.738ZM114.185 26.162C113.261 26.162 112.421 25.952 111.665 25.532C110.921 25.112 110.333 24.518 109.901 23.75C109.481 22.97 109.271 22.07 109.271 21.05C109.271 20.042 109.487 19.154 109.919 18.386C110.363 17.606 110.963 17.012 111.719 16.604C112.475 16.184 113.321 15.974 114.257 15.974C115.193 15.974 116.039 16.184 116.795 16.604C117.551 17.012 118.145 17.6 118.577 18.368C119.021 19.136 119.243 20.03 119.243 21.05C119.243 22.07 119.015 22.97 118.559 23.75C118.115 24.518 117.509 25.112 116.741 25.532C115.973 25.952 115.121 26.162 114.185 26.162ZM114.185 24.722C114.773 24.722 115.325 24.584 115.841 24.308C116.357 24.032 116.771 23.618 117.083 23.066C117.407 22.514 117.569 21.842 117.569 21.05C117.569 20.258 117.413 19.586 117.101 19.034C116.789 18.482 116.381 18.074 115.877 17.81C115.373 17.534 114.827 17.396 114.239 17.396C113.639 17.396 113.087 17.534 112.583 17.81C112.091 18.074 111.695 18.482 111.395 19.034C111.095 19.586 110.945 20.258 110.945 21.05C110.945 21.854 111.089 22.532 111.377 23.084C111.677 23.636 112.073 24.05 112.565 24.326C113.057 24.59 113.597 24.722 114.185 24.722ZM126.203 15.956C127.403 15.956 128.375 16.322 129.119 17.054C129.863 17.774 130.235 18.818 130.235 20.186V26H128.615V20.42C128.615 19.436 128.369 18.686 127.877 18.17C127.385 17.642 126.713 17.378 125.861 17.378C124.997 17.378 124.307 17.648 123.791 18.188C123.287 18.728 123.035 19.514 123.035 20.546V26H121.397V16.136H123.035V17.54C123.359 17.036 123.797 16.646 124.349 16.37C124.913 16.094 125.531 15.956 126.203 15.956ZM141.911 20.69C141.911 21.002 141.893 21.332 141.857 21.68H133.973C134.033 22.652 134.363 23.414 134.963 23.966C135.575 24.506 136.313 24.776 137.177 24.776C137.885 24.776 138.473 24.614 138.941 24.29C139.421 23.954 139.757 23.51 139.949 22.958H141.713C141.449 23.906 140.921 24.68 140.129 25.28C139.337 25.868 138.353 26.162 137.177 26.162C136.241 26.162 135.401 25.952 134.657 25.532C133.925 25.112 133.349 24.518 132.929 23.75C132.509 22.97 132.299 22.07 132.299 21.05C132.299 20.03 132.503 19.136 132.911 18.368C133.319 17.6 133.889 17.012 134.621 16.604C135.365 16.184 136.217 15.974 137.177 15.974C138.113 15.974 138.941 16.178 139.661 16.586C140.381 16.994 140.933 17.558 141.317 18.278C141.713 18.986 141.911 19.79 141.911 20.69ZM140.219 20.348C140.219 19.724 140.081 19.19 139.805 18.746C139.529 18.29 139.151 17.948 138.671 17.72C138.203 17.48 137.681 17.36 137.105 17.36C136.277 17.36 135.569 17.624 134.981 18.152C134.405 18.68 134.075 19.412 133.991 20.348H140.219Z" fill="#495057"/>
</svg>
