<svg width="20" height="20" viewBox="0 0 20 20" fill="none" xmlns="http://www.w3.org/2000/svg">
<path d="M13.4375 13.1875C13.3125 13.0625 13.25 12.9115 13.25 12.7344C13.25 12.5573 13.3125 12.4097 13.4375 12.2917L15.1042 10.625H8.4375C8.26042 10.625 8.11198 10.5648 7.99219 10.4443C7.8724 10.3238 7.8125 10.1745 7.8125 9.99635C7.8125 9.81823 7.8724 9.67014 7.99219 9.55208C8.11198 9.43403 8.26042 9.375 8.4375 9.375H15.0625L13.375 7.6875C13.2639 7.57639 13.2083 7.4344 13.2083 7.26152C13.2083 7.08863 13.2723 6.93933 13.4003 6.8136C13.5176 6.68787 13.6643 6.625 13.8402 6.625C14.0162 6.625 14.1667 6.6875 14.2917 6.8125L17.0625 9.58333C17.1319 9.65278 17.1806 9.72315 17.2083 9.79444C17.2361 9.86574 17.25 9.94213 17.25 10.0236C17.25 10.1051 17.2361 10.1806 17.2083 10.25C17.1806 10.3194 17.1319 10.3889 17.0625 10.4583L14.3125 13.2083C14.2014 13.3194 14.059 13.375 13.8854 13.375C13.7118 13.375 13.5625 13.3125 13.4375 13.1875ZM3.75 17.5C3.41667 17.5 3.125 17.375 2.875 17.125C2.625 16.875 2.5 16.5833 2.5 16.25V3.75C2.5 3.41667 2.625 3.125 2.875 2.875C3.125 2.625 3.41667 2.5 3.75 2.5H9.1875C9.36458 2.5 9.51302 2.56024 9.63281 2.68073C9.7526 2.80123 9.8125 2.95053 9.8125 3.12865C9.8125 3.30677 9.7526 3.45486 9.63281 3.57292C9.51302 3.69097 9.36458 3.75 9.1875 3.75H3.75V16.25H9.1875C9.36458 16.25 9.51302 16.3102 9.63281 16.4307C9.7526 16.5512 9.8125 16.7005 9.8125 16.8786C9.8125 17.0568 9.7526 17.2049 9.63281 17.3229C9.51302 17.441 9.36458 17.5 9.1875 17.5H3.75Z" fill="#C1121F"/>
</svg>
