<svg width="32" height="32" viewBox="0 0 32 32" fill="none" xmlns="http://www.w3.org/2000/svg">
<path d="M6.56669 25.4333C5.36669 24.2333 4.41669 22.8278 3.71669 21.2167C3.01669 19.6055 2.66669 17.8667 2.66669 16C2.66669 14.1333 3.01669 12.3944 3.71669 10.7833C4.41669 9.17221 5.36669 7.76665 6.56669 6.56665L7.96669 7.99998C6.94446 9.02221 6.13891 10.2167 5.55002 11.5833C4.96113 12.95 4.66669 14.4222 4.66669 16C4.66669 17.5778 4.96113 19.05 5.55002 20.4167C6.13891 21.7833 6.95558 22.9889 8.00002 24.0333L6.56669 25.4333ZM10.3334 21.6667C9.62224 20.9555 9.05558 20.1167 8.63335 19.15C8.21113 18.1833 8.00002 17.1333 8.00002 16C8.00002 14.8667 8.21113 13.8167 8.63335 12.85C9.05558 11.8833 9.62224 11.0444 10.3334 10.3333L11.7334 11.7667C11.2 12.3 10.7778 12.9278 10.4667 13.65C10.1556 14.3722 10 15.1555 10 16C10 16.8444 10.1556 17.6278 10.4667 18.35C10.7778 19.0722 11.2111 19.7111 11.7667 20.2667L10.3334 21.6667ZM16 18.6667C15.2667 18.6667 14.6389 18.4055 14.1167 17.8833C13.5945 17.3611 13.3334 16.7333 13.3334 16C13.3334 15.2667 13.5945 14.6389 14.1167 14.1167C14.6389 13.5944 15.2667 13.3333 16 13.3333C16.7334 13.3333 17.3611 13.5944 17.8834 14.1167C18.4056 14.6389 18.6667 15.2667 18.6667 16C18.6667 16.7333 18.4056 17.3611 17.8834 17.8833C17.3611 18.4055 16.7334 18.6667 16 18.6667ZM21.6667 21.6667L20.2667 20.2333C20.8 19.7 21.2222 19.0722 21.5334 18.35C21.8445 17.6278 22 16.8444 22 16C22 15.1555 21.8445 14.3722 21.5334 13.65C21.2222 12.9278 20.7889 12.2889 20.2334 11.7333L21.6667 10.3333C22.3778 11.0444 22.9445 11.8833 23.3667 12.85C23.7889 13.8167 24 14.8667 24 16C24 17.1111 23.7889 18.15 23.3667 19.1167C22.9445 20.0833 22.3778 20.9333 21.6667 21.6667ZM25.4334 25.4333L24.0334 24C25.0556 22.9778 25.8611 21.7833 26.45 20.4167C27.0389 19.05 27.3334 17.5778 27.3334 16C27.3334 14.4222 27.0389 12.95 26.45 11.5833C25.8611 10.2167 25.0445 9.01109 24 7.96665L25.4334 6.56665C26.6334 7.78887 27.5834 9.20554 28.2834 10.8167C28.9834 12.4278 29.3334 14.1555 29.3334 16C29.3334 17.8444 28.9834 19.5722 28.2834 21.1833C27.5834 22.7944 26.6334 24.2111 25.4334 25.4333Z" fill="#FFA600"/>
</svg>
