<svg width="96" height="32" viewBox="0 0 96 32" fill="none" xmlns="http://www.w3.org/2000/svg">
<path d="M73.1217 13.6728V10.1091C73.0849 9.70915 73.4159 9.38187 73.8205 9.34551C73.8573 9.34551 73.8573 9.34551 73.8941 9.34551C74.1884 9.34551 74.4826 9.34551 74.8136 9.34551C75.0343 9.34551 75.2182 9.4546 75.3286 9.63642C75.3654 9.70915 75.4022 9.70915 75.4757 9.67278C75.8435 9.4546 76.2481 9.34551 76.6527 9.34551C76.9838 9.34551 77.3148 9.34551 77.6826 9.38188C78.0872 9.41824 78.455 9.56369 78.7861 9.81824C78.8228 9.8546 78.9332 9.8546 78.97 9.81824C79.4481 9.52733 79.9999 9.38187 80.5516 9.34551C80.8826 9.30915 81.2136 9.30915 81.5815 9.34551C82.17 9.34551 82.7585 9.52733 83.1999 9.89096C83.7884 10.3273 84.1194 11.0182 84.1194 11.7455C84.1194 13.5637 84.1194 15.3819 84.1194 17.2001C84.1562 17.5637 83.8987 17.9273 83.4941 17.9637C83.4573 17.9637 83.4573 17.9637 83.4205 17.9637C83.0895 18.0001 82.7585 18.0001 82.4274 17.9637C82.0228 17.9273 81.7286 17.6001 81.7654 17.2001C81.7654 15.5637 81.7654 13.891 81.7654 12.2546C81.7654 11.6728 81.2504 11.1637 80.6619 11.1637C80.4045 11.1637 80.1838 11.2001 79.9631 11.3091C79.8895 11.3455 79.8159 11.4182 79.8527 11.491C79.8527 12.3273 79.8527 13.2001 79.8527 14.0364V17.2001C79.8895 17.5637 79.5953 17.9273 79.2274 17.9637C79.1907 17.9637 79.1907 17.9637 79.1539 17.9637C78.8228 18.0001 78.4918 18.0001 78.1976 17.9637C77.793 17.9273 77.4987 17.6001 77.5355 17.2001C77.5355 15.5637 77.5355 13.9273 77.5355 12.2546C77.5355 11.6364 77.0205 11.1273 76.3585 11.1273C76.3217 11.1273 76.2481 11.1273 76.2113 11.1273C75.9907 11.1637 75.8068 11.2001 75.6228 11.3091C75.5493 11.3455 75.4757 11.4182 75.4757 11.5273C75.4757 13.4182 75.4757 15.3091 75.4757 17.2001C75.4757 17.491 75.3286 17.7455 75.0711 17.891C74.9976 17.9273 74.8872 17.9637 74.7769 17.9637C74.4458 18.0001 74.078 18.0001 73.747 17.9637C73.3792 17.9273 73.1217 17.6001 73.1217 17.2728V13.6728Z" fill="#231F20"/>
<path d="M17.2873 27.1273C16.662 26.8728 16.0367 26.5455 15.4482 26.1818C14.639 25.6364 13.9401 24.9455 13.3884 24.1455C12.6896 23.2 12.2482 22.1091 12.0275 20.9455C11.9539 20.6546 11.9539 20.3637 11.9172 20.0727C11.8804 19.7818 11.8804 19.5273 11.8804 19.2364C11.8804 17.2 11.8804 15.2 11.8804 13.2C11.8804 13.0546 11.8804 13.0546 12.0275 13.0546H15.5585C16.147 13.0182 16.662 13.3091 16.993 13.7818C17.1769 14.0728 17.2873 14.4 17.2873 14.7273C17.2873 14.9091 17.324 15.0546 17.324 15.2364V19.4546C17.324 19.6 17.324 19.7455 17.324 19.8909C17.2873 19.9637 17.2873 20 17.324 20.0727V27.1273H17.2873Z" fill="#7F8184"/>
<path d="M22.9885 19.8182C22.9885 18.2182 22.9885 16.6546 22.9885 15.0909C22.9885 14.7637 23.0253 14.4 23.1724 14.1091C23.3931 13.5273 23.9448 13.1273 24.6069 13.0909C24.7173 13.0909 24.8644 13.0909 24.9747 13.0909H28.2851C28.3586 13.0909 28.3954 13.0909 28.3954 13.2C28.3954 15.3455 28.3954 17.4909 28.3954 19.6728C28.3954 20.7637 28.1379 21.8546 27.6598 22.8728C26.8138 24.7273 25.269 26.2182 23.3563 27.0182L22.9885 27.1637V19.9637C22.9885 19.8909 22.9885 19.8546 22.9885 19.8182Z" fill="#7F8184"/>
<path d="M45.5356 18.0001C44.8 18.0001 44.1011 18.0001 43.3655 18.0001C42.9241 18.0001 42.4827 17.891 42.0781 17.7092C41.3425 17.3092 40.8643 16.5819 40.7908 15.7455C40.754 15.2001 40.7908 14.6546 40.7908 14.1455C40.7908 13.3819 40.7908 12.6546 40.7908 11.891C40.7908 10.5819 41.7839 9.49099 43.108 9.41826C43.6597 9.3819 44.2482 9.41826 44.8 9.41826C45.2781 9.41826 45.7563 9.41826 46.2344 9.41826C47.3747 9.49099 48.2942 10.3637 48.5149 11.4546C48.5885 11.9637 48.5885 12.4364 48.5517 12.9455C48.5517 13.2364 48.4781 13.491 48.331 13.7455C48.1471 14.0728 47.816 14.3274 47.4482 14.4728C47.0804 14.6183 46.6758 14.691 46.2712 14.691C45.3149 14.691 44.3586 14.691 43.4023 14.691C43.2183 14.691 43.2183 14.691 43.2183 14.8728C43.2183 15.0183 43.2183 15.1637 43.2183 15.3092C43.2551 15.7819 43.6597 16.1455 44.1379 16.1092C44.1379 16.1092 44.1379 16.1092 44.1747 16.1092H47.8896C48.1103 16.1092 48.331 16.2183 48.4781 16.4001C48.5517 16.5092 48.6252 16.6546 48.6252 16.8001C48.6252 16.9455 48.6252 17.091 48.6252 17.2364C48.662 17.6364 48.3678 18.0001 47.9632 18.0364C47.9264 18.0364 47.8528 18.0364 47.816 18.0364L45.5356 18.0001ZM44.4689 12.7637H45.5724C45.6827 12.7637 45.8298 12.7637 45.9402 12.691C46.0505 12.6183 46.1241 12.5092 46.1241 12.4001C46.1241 12.2183 46.1241 12.0001 46.1241 11.8183C46.1241 11.7455 46.1241 11.6728 46.0873 11.6001C45.977 11.3455 45.6827 11.1637 45.3885 11.2001C44.8735 11.2001 44.3954 11.2001 43.8804 11.2001C43.5126 11.1637 43.1816 11.4183 43.1448 11.7819C43.1448 11.8183 43.1448 11.891 43.1448 11.9274C43.1448 12.1819 43.1448 12.4364 43.1448 12.6546C43.1448 12.7637 43.1816 12.8001 43.2919 12.7637C43.6965 12.7274 44.1011 12.7637 44.4689 12.7637Z" fill="#231F20"/>
<path d="M57.0484 13.6364C57.0484 13.6728 57.0484 13.7455 57.0484 13.7819C57.0484 14.9092 57.0484 16.0364 57.0484 17.1637C57.0484 17.3455 57.0116 17.5637 56.8645 17.7092C56.7173 17.891 56.4966 17.9637 56.2759 17.9637H55.43C55.0254 17.9637 54.6943 17.6364 54.6943 17.2364V7.23643C54.6943 6.83643 54.9886 6.50916 55.3932 6.50916C55.3932 6.50916 55.3932 6.50916 55.43 6.50916C55.7242 6.50916 56.0185 6.50916 56.3127 6.50916C56.7173 6.50916 57.0484 6.83643 57.0484 7.23643C57.0484 7.27279 57.0484 7.30916 57.0484 7.38188C57.0484 9.23643 57.0484 11.0546 57.0484 12.9092C57.0484 12.9455 57.0116 13.0182 57.0484 13.0182C57.0851 13.0182 57.1219 12.9455 57.1587 12.9455C57.9679 11.9273 58.8139 10.9092 59.6231 9.89097C59.9173 9.52734 60.3587 9.30915 60.8369 9.30915C61.1679 9.30915 61.5357 9.30915 61.8668 9.30915C61.9771 9.30915 62.0507 9.30915 62.161 9.34552C62.2713 9.38188 62.3449 9.49097 62.3449 9.60006V9.63643C62.3081 9.74552 62.2714 9.81824 62.1978 9.89097L60.8001 11.6001C60.3587 12.1455 59.9173 12.6546 59.4759 13.1637C59.4392 13.2364 59.4392 13.2728 59.4759 13.3092L60.3955 14.6182L61.9403 16.8001C62.0507 16.9455 62.161 17.091 62.2714 17.2364C62.3449 17.3455 62.4185 17.4182 62.4185 17.5637C62.4553 17.7092 62.3817 17.8546 62.2346 17.891C62.161 17.9273 62.0874 17.9273 62.0139 17.9273H60.653C60.2484 17.9637 59.8438 17.7455 59.6231 17.3819C58.961 16.3637 58.2989 15.3819 57.6369 14.4001C57.4897 14.1819 57.3426 13.9273 57.1587 13.7092C57.1219 13.6728 57.0851 13.6364 57.0484 13.6364Z" fill="#231F20"/>
<path d="M71.1357 13.6727V15.4545C71.1357 16.0727 70.9518 16.6908 70.5104 17.1272C70.069 17.6363 69.4437 17.9272 68.7817 17.9636C67.8253 17.9999 66.869 17.9999 65.8759 17.9636C65.1771 17.9636 64.515 17.6727 64.0368 17.1999C63.6322 16.7999 63.4115 16.2545 63.3748 15.709C63.3748 15.5272 63.3748 15.309 63.3748 15.1272C63.3748 14.0363 63.3748 12.9454 63.3748 11.8545C63.3748 11.309 63.5587 10.7272 63.8897 10.2908C64.3311 9.74539 64.9564 9.38175 65.692 9.34539C65.9495 9.30902 66.2069 9.34539 66.4644 9.34539C67.2368 9.34539 68.046 9.30902 68.8184 9.38175C70.1426 9.49084 71.1357 10.5817 71.0989 11.8908C71.1357 12.4727 71.1357 13.0545 71.1357 13.6727ZM68.7449 13.6727V12.2181C68.7449 11.6363 68.2667 11.1636 67.6782 11.1636H66.8322C66.2437 11.1636 65.7656 11.6363 65.7656 12.2181V15.1636C65.7656 15.7454 66.2437 16.2181 66.8322 16.2181H67.6782C68.2667 16.2545 68.7449 15.7818 68.7817 15.1999C68.7817 15.1636 68.7817 15.1636 68.7817 15.1272L68.7449 13.6727Z" fill="#231F20"/>
<path d="M20.1562 5.30915C20.7815 4.76369 21.5172 4.40005 22.3631 4.21824C22.7677 4.14551 23.1356 4.10915 23.5402 4.07278C24.2022 4.03642 24.8643 4.03642 25.4896 4.03642C26.0781 4.03642 26.6298 4.00006 27.2183 3.96369C27.5861 3.92733 27.954 3.89096 28.3585 3.81824C28.4321 3.81824 28.4321 3.81824 28.4321 3.89096C28.4321 4.10915 28.4321 4.32733 28.4321 4.58187C28.4321 5.8546 28.4321 7.09096 28.4321 8.36369C28.4321 8.43642 28.3953 8.50915 28.3218 8.50915C27.8804 8.58187 27.439 8.61824 26.9976 8.6546C26.1517 8.72733 25.3057 8.69096 24.4597 8.69096C23.6873 8.69096 22.9149 8.80006 22.1792 9.0546C21.7011 9.23642 21.2597 9.49096 20.8919 9.81824C20.6344 10.0364 20.4137 10.2546 20.2298 10.5091C20.193 10.4364 20.193 10.4001 20.193 10.3273L20.1562 5.30915Z" fill="#B01116"/>
<path d="M20.1562 10.5091C20.1195 10.5091 20.0827 10.4728 20.0827 10.4364C19.4206 9.56366 18.4275 8.98185 17.324 8.80003C16.993 8.76366 16.6988 8.7273 16.3677 8.69094C15.7424 8.65458 15.1539 8.69094 14.5286 8.65458C14.1608 8.65458 13.793 8.65457 13.462 8.61821C12.947 8.58185 12.4689 8.50912 11.9539 8.43639C11.8804 8.43639 11.8804 8.36367 11.8804 8.3273V6.76367C11.8804 5.78185 11.8804 4.83639 11.8804 3.85457C11.8804 3.74548 11.9172 3.74548 11.9907 3.74548C12.4689 3.81821 12.947 3.89094 13.4252 3.89094C13.7195 3.9273 14.0137 3.9273 14.308 3.9273C14.8229 3.96367 15.3378 3.9273 15.816 3.96367C16.147 3.96367 16.4781 3.96367 16.7723 4.00003C17.324 4.03639 17.8758 4.14548 18.4275 4.29094C18.9792 4.47276 19.4942 4.76366 19.9723 5.1273L20.1195 5.23639C20.1195 6.94548 20.1195 8.61821 20.1195 10.3273C20.1562 10.4364 20.1562 10.4728 20.1562 10.5091Z" fill="#EC1D24"/>
<path d="M38.2527 13.0182V17.2364C38.2527 17.6364 37.9217 17.9636 37.5539 17.9636C37.2229 17.9636 36.8918 17.9636 36.5976 17.9636C36.2297 17.9273 35.9723 17.6364 35.9355 17.2727V8.72728C35.9355 8.58183 35.9355 8.58183 35.7884 8.58183H33.2137C32.8458 8.61819 32.478 8.32728 32.478 7.96365C32.478 7.96365 32.478 7.96365 32.478 7.92728C32.4412 7.7091 32.4412 7.52728 32.478 7.3091C32.5148 6.94546 32.8091 6.69092 33.1769 6.69092C33.2137 6.69092 33.2504 6.69092 33.2504 6.69092H40.6803C40.8642 6.69092 41.0481 6.72728 41.232 6.83637C41.3792 6.94546 41.4895 7.16364 41.4895 7.34546C41.4895 7.52728 41.4895 7.7091 41.4895 7.89092C41.4895 8.25455 41.1585 8.58183 40.7907 8.58183C40.0183 8.58183 39.2458 8.58183 38.4366 8.58183C38.2527 8.58183 38.2527 8.58183 38.2527 8.80001V13.0182Z" fill="#231F20"/>
<path d="M22.9885 27.0909C22.5103 27.309 22.0322 27.4545 21.5172 27.5272C20.5241 27.709 19.4575 27.6727 18.4644 27.4545C18.0598 27.3818 17.6552 27.2727 17.2874 27.1272V20.0727C17.2874 19.9999 17.2874 19.9272 17.2874 19.8909C17.3241 19.9999 17.3609 20.109 17.3609 20.2181C17.5448 20.9454 18.0598 21.5636 18.7218 21.9272C19.2368 22.2181 19.8621 22.3272 20.4506 22.2545C21.1126 22.1818 21.7011 21.8545 22.1793 21.3818C22.5839 20.9454 22.8414 20.4363 22.9149 19.8545C22.9517 19.9272 22.9517 19.9636 22.9149 20.0363V26.909C22.9885 26.9818 22.9885 27.0181 22.9885 27.0909Z" fill="#58595B"/>
<path d="M50.3539 12.2546V7.30913C50.3171 6.90913 50.6114 6.54549 51.0528 6.54549C51.0896 6.54549 51.1263 6.54549 51.1631 6.54549C51.4206 6.54549 51.6781 6.54549 51.9355 6.54549C52.3401 6.50913 52.708 6.8364 52.708 7.2364C52.708 7.27276 52.708 7.30912 52.708 7.34549V17.2364C52.7447 17.6364 52.4505 17.9637 52.0827 18C52.0827 18 52.0827 18 52.0459 18C51.7148 18.0364 51.347 18.0364 51.016 18C50.6482 17.9637 50.3539 17.6364 50.3907 17.2728L50.3539 12.2546Z" fill="#231F20"/>
<path d="M35.8986 22.4V20.2182C35.8619 20.0364 35.9722 19.8182 36.1561 19.7818C36.1929 19.7818 36.2665 19.7818 36.34 19.7818C36.4504 19.7818 36.5975 19.7818 36.7078 19.7818C36.9285 19.7818 37.1124 19.9273 37.1124 20.1455V20.1818V24.1818C37.1124 24.2546 37.1124 24.3273 37.1124 24.4C37.1492 24.6546 37.3699 24.8728 37.6642 24.8728H39.0619C39.3561 24.8728 39.6136 24.6546 39.6504 24.3637C39.6504 24.3273 39.6504 24.3273 39.6504 24.2909V20.2546C39.6504 20.2182 39.6504 20.1455 39.6504 20.1091C39.6504 19.8909 39.7975 19.7455 40.0182 19.7455H40.055C40.2021 19.7455 40.3492 19.7455 40.4964 19.7455C40.717 19.7455 40.9009 19.9273 40.9377 20.1455V20.1818C40.9377 21.6364 40.9377 23.0909 40.9377 24.5091C40.9377 25.2364 40.3492 25.8182 39.6504 25.8182H39.6136H37.2964C36.5975 25.8182 36.009 25.2364 36.009 24.5455V22.4H35.8986Z" fill="#231F20"/>
<path d="M84.0828 24.0364V26.291C84.0828 27.0183 83.4943 27.6001 82.7587 27.6001C82.0598 27.6001 81.361 27.6001 80.6253 27.6001C80.4046 27.6365 80.2207 27.4546 80.184 27.2728C80.184 27.2364 80.184 27.2365 80.184 27.2001C80.184 27.1274 80.184 27.0546 80.184 26.9819C80.184 26.8001 80.3679 26.6183 80.5886 26.6546C81.1403 26.6546 81.692 26.6546 82.2805 26.6546C82.6851 26.6546 82.869 26.4364 82.869 26.0728C82.869 25.8183 82.869 25.8183 82.6115 25.8183C82.1702 25.8183 81.7288 25.8183 81.2874 25.8183C80.846 25.8183 80.4414 25.6364 80.2207 25.2728C80.0736 25.0546 79.9633 24.7637 80 24.4728C80 23.5274 80 22.5819 80 21.6364C79.9633 21.4546 80.1104 21.2365 80.2943 21.2365C80.3311 21.2365 80.3679 21.2365 80.4046 21.2365H80.8092C81.0299 21.2365 81.2138 21.3819 81.2138 21.6001V21.6364V24.3274C81.2138 24.4728 81.2506 24.5819 81.2874 24.691C81.361 24.8001 81.4713 24.8728 81.6184 24.8728H82.7219C82.8322 24.8728 82.8322 24.8001 82.8322 24.7274V21.6364C82.8322 21.4183 82.9794 21.2728 83.1633 21.2365C83.2001 21.2365 83.2001 21.2365 83.2368 21.2365H83.6414C83.8621 21.2365 84.046 21.3819 84.046 21.6001V21.6364L84.0828 24.0364Z" fill="#231F20"/>
<path d="M59.3287 25.8545H58.2253C57.4896 25.8545 56.9011 25.2727 56.9011 24.5454V22.5818C56.9011 21.8545 57.4896 21.2727 58.1885 21.2727C58.1885 21.2727 58.1885 21.2727 58.2253 21.2727H59.7333C60.3586 21.2727 60.9103 21.7454 60.9839 22.3636C61.0207 22.6545 61.0207 22.9818 60.9839 23.2727C60.9103 23.6727 60.5793 24 60.1747 24.0363C59.9908 24.0727 59.8437 24.0727 59.6597 24.0727C59.1816 24.0727 58.7034 24.0727 58.2253 24.0727C58.0781 24.0727 58.0781 24.0727 58.0781 24.2182C58.0781 24.3272 58.0781 24.4727 58.1149 24.5818C58.1885 24.8 58.3724 24.9454 58.5931 24.9091C59.1816 24.9091 59.8069 24.9091 60.3954 24.9091C60.6161 24.9091 60.8368 25.0909 60.8368 25.3091V25.3454C60.8368 25.7454 60.6896 25.8909 60.285 25.8545C60.0276 25.8545 59.6597 25.8545 59.3287 25.8545ZM58.1517 22.8V22.9091C58.1517 23.0545 58.1517 23.0545 58.2988 23.0545C58.6299 23.0545 58.9609 23.0545 59.2919 23.0545C59.4023 23.0545 59.4758 23.0545 59.5862 23.0182C59.6965 23.0182 59.7701 22.9091 59.7701 22.8V22.5818C59.8069 22.4 59.6597 22.1818 59.4758 22.1454C59.4391 22.1454 59.4023 22.1454 59.3655 22.1454C59.1448 22.1454 58.9609 22.1454 58.7402 22.1454C58.2988 22.2182 58.1149 22.3636 58.1517 22.8Z" fill="#231F20"/>
<path d="M42.7401 23.5636V21.6727C42.7033 21.4909 42.8504 21.2727 43.0343 21.2727C43.0711 21.2727 43.1079 21.2727 43.1447 21.2727C43.2918 21.2727 43.4021 21.2727 43.5493 21.2727C43.6964 21.2727 43.8435 21.3454 43.9171 21.4545C43.9539 21.4909 43.9906 21.4909 44.0274 21.4909C44.3217 21.3454 44.6527 21.2727 44.947 21.2727C45.1309 21.2727 45.3148 21.2727 45.4987 21.2727C46.124 21.2727 46.6757 21.7454 46.786 22.3636C46.786 22.4363 46.786 22.5091 46.786 22.5818V25.4545C46.8228 25.6363 46.6757 25.8545 46.4918 25.8545C46.455 25.8545 46.4182 25.8545 46.3814 25.8545H45.9768C45.7562 25.8545 45.5723 25.7091 45.5723 25.4909V25.4545V22.8727C45.609 22.5454 45.3516 22.2545 45.0205 22.2545C44.9837 22.2545 44.9837 22.2545 44.947 22.2545C44.6527 22.2182 44.3585 22.2909 44.101 22.4C44.0274 22.4363 43.9539 22.5091 43.9539 22.6182C43.9539 23.5636 43.9539 24.5091 43.9539 25.4545C43.9539 25.5636 43.9171 25.6727 43.8435 25.7818C43.77 25.8545 43.6596 25.8909 43.5493 25.8909H43.0711C42.8504 25.8909 42.7033 25.7454 42.6665 25.5636V25.5272V23.5636H42.7401Z" fill="#231F20"/>
<path d="M68.23 25.8545H67.0898C66.9059 25.8909 66.722 25.7454 66.6852 25.5273V25.4909C66.6852 25.3818 66.6852 25.2727 66.722 25.1636C66.7587 25.0182 66.9059 24.9091 67.0898 24.9091H69.0392C69.2599 24.9091 69.4438 24.7273 69.4806 24.5091V24.4727C69.4806 24.2182 69.2967 24.0363 69.076 24.0363C69.076 24.0363 69.076 24.0363 69.0392 24.0363C68.6714 24.0363 68.3403 24.0363 67.9725 24.0363C67.2369 24.0363 66.6484 23.4909 66.5748 22.8C66.5013 22.1091 66.9794 21.4545 67.7151 21.3091C67.7886 21.3091 67.8254 21.3091 67.899 21.3091H70.0323C70.2162 21.2727 70.4369 21.4182 70.4369 21.6C70.4369 21.6364 70.4369 21.6727 70.4369 21.7091V21.8182C70.4369 22.0363 70.2898 22.1818 70.1059 22.2182C70.0691 22.2182 70.0691 22.2182 70.0323 22.2182C69.4438 22.2182 68.8553 22.2182 68.2668 22.2182C68.0461 22.1818 67.8622 22.3273 67.7886 22.5091C67.7151 22.7273 67.7886 22.9454 68.0093 23.0182C68.0461 23.0545 68.1197 23.0545 68.1932 23.0545H69.2599C69.4806 23.0545 69.7013 23.0909 69.922 23.2C70.6208 23.5636 70.8783 24.4 70.5105 25.0909C70.4369 25.2 70.3633 25.3091 70.2898 25.4182C70.0323 25.7091 69.6645 25.8545 69.2599 25.8545C68.8921 25.8545 68.561 25.8545 68.23 25.8545Z" fill="#231F20"/>
<path d="M76.7632 23.3455V24.3273C76.7632 24.4364 76.7632 24.5091 76.8368 24.6182C76.9103 24.7637 77.0575 24.8727 77.2046 24.8727H78.0873C78.308 24.8364 78.4919 24.9818 78.5287 25.2C78.5287 25.2364 78.5287 25.2727 78.5287 25.3091V25.4182C78.5287 25.6364 78.3816 25.7818 78.1977 25.8182C78.1609 25.8182 78.1609 25.8182 78.1241 25.8182H76.8368C76.1379 25.8182 75.5862 25.2364 75.5494 24.5455V22.3273C75.5494 22.1455 75.5494 22.1455 75.3655 22.1455C75.1816 22.1455 75.0713 22.1455 74.8873 22.1455C74.7034 22.1455 74.5563 22 74.5195 21.8182C74.5195 21.7091 74.5195 21.6364 74.5195 21.5273C74.5195 21.3455 74.7034 21.1637 74.9241 21.2H75.4023C75.5494 21.2 75.5494 21.2 75.5494 21.0546V20.1091C75.5126 19.9273 75.6598 19.7455 75.8804 19.7091H75.9172C76.0644 19.7091 76.2115 19.7091 76.3586 19.7091C76.5793 19.7091 76.7632 19.8909 76.7632 20.1091V20.1455C76.7632 20.4364 76.7632 20.7637 76.7632 21.0909C76.7632 21.2 76.8 21.2364 76.9103 21.2364H77.8667C78.1241 21.2364 78.2713 21.3818 78.2713 21.6364C78.308 22.0364 78.1241 22.1818 77.7195 22.1818C77.4621 22.1818 77.1678 22.1818 76.9103 22.1818C76.7632 22.1818 76.7632 22.1818 76.7632 22.3637V23.3455Z" fill="#231F20"/>
<path d="M53.3701 24.8365C53.4436 24.6183 53.554 24.3637 53.6275 24.1455C53.9218 23.3092 54.216 22.4728 54.5471 21.6364C54.6206 21.4183 54.8413 21.2365 55.0988 21.2365H55.5402C55.7976 21.2365 55.8712 21.3819 55.8344 21.6001C55.7976 21.7819 55.7241 21.9274 55.6505 22.1092L54.4735 25.4183C54.3999 25.6364 54.216 25.8183 53.9954 25.8183C53.6275 25.8546 53.2965 25.8546 52.9287 25.8183C52.708 25.8183 52.4873 25.6364 52.4505 25.4183L51.7149 23.3092C51.531 22.7637 51.3103 22.2183 51.1264 21.6728C51.0896 21.6001 51.0896 21.5637 51.0896 21.491C51.0896 21.3819 51.1632 21.2728 51.3103 21.2728C51.4574 21.2728 51.6045 21.2728 51.7885 21.2728C52.0091 21.2728 52.1931 21.4183 52.2666 21.6364C52.4137 22.0364 52.5609 22.4365 52.708 22.8365C52.9287 23.491 53.1494 24.1092 53.4068 24.7637C53.3333 24.8001 53.3333 24.8365 53.3701 24.8365Z" fill="#231F20"/>
<path d="M62.6021 23.5636V21.6727C62.5653 21.4909 62.7125 21.2727 62.8964 21.2727C62.9331 21.2727 62.9699 21.2727 63.0067 21.2727H63.4481C63.5952 21.2727 63.7423 21.3454 63.7791 21.4545C63.8159 21.4909 63.8159 21.5272 63.8895 21.4909C63.963 21.4545 64.0366 21.4182 64.1469 21.3818C64.3308 21.3091 64.5515 21.2727 64.7722 21.2727C64.9929 21.2727 65.2136 21.2727 65.4711 21.2727C65.655 21.2727 65.8021 21.4182 65.8389 21.6C65.8389 21.7091 65.8389 21.8182 65.8389 21.8909C65.8021 22.0727 65.655 22.2182 65.4711 22.2182H64.6251C64.4044 22.2182 64.2205 22.2545 64.0366 22.3636C63.9263 22.4 63.8895 22.4727 63.8895 22.5818C63.8895 23.5273 63.8895 24.4363 63.8895 25.3818C63.8895 25.4545 63.8895 25.5273 63.8527 25.6C63.8159 25.7454 63.6688 25.8545 63.5216 25.8909H62.9699C62.786 25.8909 62.6389 25.7091 62.6389 25.5272C62.6389 24.9454 62.6389 24.3636 62.6389 23.7818L62.6021 23.5636Z" fill="#231F20"/>
<path d="M48.5885 23.5636V21.7091C48.5517 21.5272 48.6621 21.3091 48.8828 21.2727C48.9195 21.2727 48.9931 21.2727 49.0299 21.2727H49.4345C49.6184 21.2727 49.7655 21.4182 49.8023 21.6C49.8023 21.6727 49.8023 21.7454 49.8023 21.8182V25.3818C49.8023 25.4545 49.8023 25.5273 49.8023 25.6C49.7655 25.7454 49.6184 25.8545 49.4713 25.8909C49.2874 25.8909 49.1035 25.8909 48.9195 25.8909C48.7356 25.8909 48.5517 25.7091 48.5885 25.4909V23.5636Z" fill="#231F20"/>
<path d="M73.3056 23.5637V25.4182C73.3056 25.7091 73.1585 25.8546 72.8642 25.8546H72.4596C72.2389 25.8546 72.0918 25.7091 72.0918 25.4909V21.6364C72.0918 21.4182 72.2389 21.2727 72.4596 21.2727H72.901C73.0849 21.2364 73.2688 21.4182 73.3056 21.6C73.3056 21.6364 73.3056 21.6364 73.3056 21.6727C73.3056 22.2909 73.3056 22.9455 73.3056 23.5637Z" fill="#231F20"/>
<path d="M49.2138 20.8C49.1402 20.8 49.0666 20.8 48.9931 20.8C48.7724 20.8 48.6252 20.6545 48.6252 20.4363V20.4C48.6252 20.3272 48.6252 20.2182 48.6252 20.1454C48.6252 19.9636 48.7356 19.8182 48.9195 19.7818C49.1402 19.7454 49.3241 19.7454 49.5448 19.7818C49.6919 19.8182 49.839 19.9272 49.839 20.0727C49.8758 20.1818 49.8758 20.3272 49.839 20.4363C49.839 20.6182 49.6551 20.7636 49.4712 20.7636C49.3609 20.8 49.2873 20.8 49.2138 20.8Z" fill="#231F20"/>
<path d="M72.6805 20.8C72.5701 20.8 72.4598 20.8 72.3494 20.8C72.1655 20.7637 72.0552 20.6182 72.0552 20.4364C72.0552 20.3637 72.0552 20.2546 72.0552 20.1819C72.0552 19.9637 72.2023 19.8182 72.3862 19.7819H72.423C72.6069 19.7819 72.7908 19.7819 72.9379 19.7819C73.1218 19.7819 73.3058 19.9637 73.269 20.1455C73.269 20.2182 73.269 20.291 73.269 20.4C73.3058 20.5819 73.1586 20.7637 72.9379 20.8C72.9012 20.8 72.9012 20.8 72.8644 20.8C72.8276 20.8 72.754 20.8 72.6805 20.8Z" fill="#231F20"/>
<path d="M22.9885 27.091C22.9885 27.0182 22.9885 26.9819 22.9885 26.9091V20.0364C22.9885 19.9637 22.9885 19.9273 22.9885 19.8546C22.9885 19.8182 22.9885 19.8182 23.0253 19.8182C23.0253 19.8546 23.0253 19.891 23.0253 19.9273L22.9885 27.091Z" fill="#404142"/>
<path d="M20.1562 10.5091C20.1562 10.4727 20.1562 10.4363 20.1562 10.3636C20.1562 8.65452 20.1562 6.9818 20.1562 5.27271V10.2909C20.1562 10.3636 20.1563 10.4 20.193 10.4727L20.1562 10.5091Z" fill="#880F12"/>
</svg>
